<svg data-v-423bf9ae="" xmlns="http://www.w3.org/2000/svg" viewBox="0 0 619 90" class="iconLeft"><!----><!----><!----><g data-v-423bf9ae="" id="389eb49c-0d31-4b44-b22f-e93fe666ae85" fill="white" transform="matrix(6.1037640351658435,0,0,6.1037640351658435,121.24998649856565,10.910478888641002)"><path d="M3.51 0.70L3.51 0.70L3.51 0.70Q3.92 0.77 4.19 1.08L4.19 1.08L4.19 1.08Q4.45 1.39 4.45 1.81L4.45 1.81L4.45 2.84L4.45 3.29L2.91 3.29L2.91 2.84L2.91 2.23L1.54 2.23L1.54 8.97L2.91 8.97L2.91 8.34L2.91 7.90L4.45 7.90L4.45 8.34L4.45 9.39L4.45 9.39Q4.45 9.81 4.19 10.12L4.19 10.12L4.19 10.12Q3.92 10.43 3.51 10.50L3.51 10.50L0.94 10.50L0.94 10.50Q0.53 10.43 0.27 10.12L0.27 10.12L0.27 10.12Q0 9.81 0 9.39L0 9.39L0 1.81L0 1.81Q0 1.39 0.27 1.08L0.27 1.08L0.27 1.08Q0.53 0.77 0.94 0.70L0.94 0.70L3.51 0.70ZM8.26 0.70L8.26 0.70L9.80 0.70L9.80 10.50L8.26 10.50L8.26 5.60L6.90 5.60L6.90 10.50L5.36 10.50L5.36 4.06L6.89 4.06L5.36 1.02L5.36 0.70L6.90 0.70L6.90 4.06L8.26 4.06L8.26 0.70ZM14.21 0.70L14.21 0.70L15.79 10.50L14.22 10.50L13.26 3.70L12.87 6.90L12.87 6.92L13.26 6.92L13.26 8.46L12.61 8.46L12.29 10.50L10.74 10.50L11.06 8.46L10.71 8.46L10.71 6.92L11.31 6.92L12.31 0.70L14.21 0.70ZM19.81 5.60L21.13 10.50L19.64 10.50L17.88 4.06L19.25 4.06L19.25 2.25L17.88 2.25L17.88 4.06L16.34 1.02L16.34 0.70L19.67 0.70L19.67 0.70Q20.10 0.70 20.41 0.98L20.41 0.98L20.41 0.98Q20.72 1.26 20.78 1.68L20.78 1.68L20.79 4.48L20.79 4.49L20.79 4.49Q20.79 4.91 20.50 5.23L20.50 5.23L20.50 5.23Q20.22 5.54 19.81 5.60L19.81 5.60ZM16.34 10.50L16.34 4.06L17.88 4.06L17.88 10.50L16.34 10.50ZM25.17 5.60L26.49 10.50L25.00 10.50L23.24 4.06L24.61 4.06L24.61 2.25L23.24 2.25L23.24 4.06L21.70 1.02L21.70 0.70L25.03 0.70L25.03 0.70Q25.47 0.70 25.77 0.98L25.77 0.98L25.77 0.98Q26.08 1.26 26.14 1.68L26.14 1.68L26.15 4.48L26.15 4.49L26.15 4.49Q26.15 4.91 25.87 5.23L25.87 5.23L25.87 5.23Q25.58 5.54 25.17 5.60L25.17 5.60ZM21.70 10.50L21.70 4.06L23.24 4.06L23.24 10.50L21.70 10.50ZM29.97 0.67L31.51 0.67L31.51 9.11L31.51 9.11Q31.51 9.65 31.18 10.02L31.18 10.02L31.18 10.02Q30.84 10.42 30.35 10.49L30.35 10.49L30.32 10.50L30.30 10.50L28.27 10.50L28.25 10.50L28.22 10.49L28.22 10.49Q27.73 10.42 27.40 10.02L27.40 10.02L27.40 10.02Q27.06 9.65 27.06 9.11L27.06 9.11L27.06 0.67L28.60 0.67L28.60 8.97L29.97 8.97L29.97 0.67ZM35.92 0.70L35.92 0.70L37.51 10.50L35.94 10.50L34.97 3.70L34.58 6.90L34.58 6.92L34.97 6.92L34.97 8.46L34.33 8.46L34.01 10.50L32.45 10.50L32.77 8.46L32.42 8.46L32.42 6.92L33.03 6.92L34.02 0.70L35.92 0.70ZM44.55 1.82L44.55 4.54L44.55 4.54Q44.35 4.77 43.96 4.89L43.96 4.89L43.96 4.89Q44.32 5.01 44.52 5.25L44.52 5.25L44.52 5.25Q44.53 5.32 44.54 5.38L44.54 5.38L44.54 5.38Q44.55 5.45 44.55 5.52L44.55 5.52L44.55 9.39L44.55 9.39Q44.55 9.86 44.22 10.18L44.22 10.18L44.22 10.18Q43.89 10.50 43.43 10.50L43.43 10.50L40.36 10.50L40.36 0.70L43.43 0.70L43.43 0.70Q43.89 0.70 44.22 1.03L44.22 1.03L44.22 1.03Q44.55 1.36 44.55 1.82L44.55 1.82ZM43.01 8.96L43.01 5.60L41.90 5.60L41.90 8.96L43.01 8.96ZM43.01 4.06L43.01 2.25L41.90 2.25L41.90 4.06L43.01 4.06ZM48.37 0.67L49.91 0.67L49.91 9.11L49.91 9.11Q49.91 9.65 49.57 10.02L49.57 10.02L49.57 10.02Q49.24 10.42 48.75 10.49L48.75 10.49L48.72 10.50L48.69 10.50L46.66 10.50L46.65 10.50L46.62 10.49L46.62 10.49Q46.13 10.42 45.79 10.02L45.79 10.02L45.79 10.02Q45.46 9.65 45.46 9.11L45.46 9.11L45.46 0.67L47.00 0.67L47.00 8.97L48.37 8.97L48.37 0.67ZM54.29 5.60L55.61 10.50L54.12 10.50L52.36 4.06L53.73 4.06L53.73 2.25L52.36 2.25L52.36 4.06L50.82 1.02L50.82 0.70L54.15 0.70L54.15 0.70Q54.59 0.70 54.89 0.98L54.89 0.98L54.89 0.98Q55.20 1.26 55.26 1.68L55.26 1.68L55.27 4.48L55.27 4.49L55.27 4.49Q55.27 4.91 54.99 5.23L54.99 5.23L54.99 5.23Q54.70 5.54 54.29 5.60L54.29 5.60ZM50.82 10.50L50.82 4.06L52.36 4.06L52.36 10.50L50.82 10.50ZM60.63 3.30L59.09 3.30L59.09 2.24L57.72 2.24L57.72 8.97L59.09 8.97L59.09 5.60L58.45 5.60L58.45 4.06L60.63 4.06L60.63 9.41L60.63 9.41Q60.63 9.81 60.37 10.12L60.37 10.12L60.37 10.12Q60.10 10.43 59.70 10.50L59.70 10.50L57.12 10.50L57.12 10.50Q56.71 10.43 56.45 10.12L56.45 10.12L56.45 10.12Q56.18 9.81 56.18 9.41L56.18 9.41L56.18 1.81L56.18 1.81Q56.18 1.40 56.45 1.08L56.45 1.08L56.45 1.08Q56.71 0.77 57.12 0.70L57.12 0.70L59.70 0.70L59.70 0.70Q60.10 0.77 60.37 1.08L60.37 1.08L60.37 1.08Q60.63 1.40 60.63 1.81L60.63 1.81L60.63 3.30ZM64.46 0.67L66.00 0.67L66.00 9.11L66.00 9.11Q66.00 9.65 65.66 10.02L65.66 10.02L65.66 10.02Q65.32 10.42 64.83 10.49L64.83 10.49L64.81 10.50L64.78 10.50L62.75 10.50L62.73 10.50L62.71 10.49L62.71 10.49Q62.22 10.42 61.88 10.02L61.88 10.02L61.88 10.02Q61.54 9.65 61.54 9.11L61.54 9.11L61.54 0.67L63.08 0.67L63.08 8.97L64.46 8.97L64.46 0.67ZM68.45 0.70L68.45 0.70L70.91 0.70L70.91 1.68L70.91 2.24L68.45 2.24L68.45 4.07L70.41 4.07L70.41 4.35L70.41 5.33L70.41 5.61L68.45 5.61L68.45 8.96L70.91 8.96L70.91 9.52L70.91 10.50L68.45 10.50L66.91 10.50L66.91 9.48L66.91 4.07L68.45 4.07L66.91 1.04L66.91 0.70L68.45 0.70ZM75.29 5.60L76.61 10.50L75.12 10.50L73.36 4.06L74.73 4.06L74.73 2.25L73.36 2.25L73.36 4.06L71.82 1.02L71.82 0.70L75.15 0.70L75.15 0.70Q75.59 0.70 75.89 0.98L75.89 0.98L75.89 0.98Q76.20 1.26 76.26 1.68L76.26 1.68L76.27 4.48L76.27 4.49L76.27 4.49Q76.27 4.91 75.99 5.23L75.99 5.23L75.99 5.23Q75.70 5.54 75.29 5.60L75.29 5.60ZM71.82 10.50L71.82 4.06L73.36 4.06L73.36 10.50L71.82 10.50ZM81.12 1.16L81.12 1.16L81.12 1.16Q81.45 1.57 81.45 2.07L81.45 2.07L81.45 3.12L81.45 3.40L81.17 3.40L80.19 3.40L79.91 3.40L79.91 3.12L79.91 2.23L78.74 2.23L78.74 3.98L78.74 4.05L80.05 4.05L80.05 4.05Q80.64 4.05 81.05 4.45L81.05 4.45L81.05 4.45Q81.45 4.86 81.45 5.45L81.45 5.45L81.45 6.85L81.45 9.11L81.45 9.11Q81.45 9.62 81.12 10.02L81.12 10.02L81.12 10.02Q80.78 10.40 80.28 10.49L80.28 10.49L80.25 10.50L80.23 10.50L78.40 10.50L78.39 10.50L78.36 10.49L78.36 10.49Q77.85 10.40 77.52 10.02L77.52 10.02L77.52 10.02Q77.18 9.62 77.18 9.11L77.18 9.11L77.18 8.06L77.18 7.78L77.46 7.78L78.46 7.78L78.74 7.78L78.74 8.06L78.74 8.96L79.91 8.96L79.91 5.60L78.58 5.60L78.58 5.60Q77.99 5.60 77.59 5.19L77.59 5.19L77.59 5.19Q77.18 4.79 77.18 4.20L77.18 4.20L77.18 4.10L77.18 3.98L77.18 2.07L77.18 2.07Q77.18 1.57 77.52 1.16L77.52 1.16L77.52 1.16Q77.85 0.78 78.36 0.70L78.36 0.70L78.39 0.70L78.40 0.70L80.23 0.70L80.25 0.70L80.28 0.70L80.28 0.70Q80.78 0.78 81.12 1.16Z"></path></g><!----><g data-v-423bf9ae="" id="510c51f5-1c7e-4687-94a0-007bc529f303" transform="matrix(1.875,0,0,1.875,-9,-16.875)" stroke="none" fill="white"><path d="M15.659 32.307A2.032 2.032 0 0 1 17.609 31c.859 0 1.8 1.141 2.062 1.543l.001.001C19.838 32.8 21.32 35 23.414 35c2.362 0 3.554-1.762 3.854-2.693.004-.013.419-1.208 1.808-1.292.831.082 1.709 1.14 1.963 1.526v.001c.162.252 1.647 2.458 3.742 2.458 2.362 0 3.554-1.762 3.854-2.693.005-.014.439-1.307 1.951-1.307.859 0 1.802 1.144 2.063 1.545.169.26 1.65 2.455 3.742 2.455 2.362 0 3.554-1.762 3.854-2.693A2.032 2.032 0 0 1 52.195 31c.858 0 1.797 1.138 2.062 1.541v.001C54.419 32.793 55.902 35 58 35a1 1 0 1 0 0-2c-.857 0-1.795-1.135-2.061-1.539l-.001-.003C55.775 31.207 54.292 29 52.195 29c-2.362 0-3.554 1.762-3.854 2.693A2.032 2.032 0 0 1 46.391 33c-.859 0-1.8-1.141-2.062-1.543l-.001-.001C44.162 31.2 42.68 29 40.586 29c-2.362 0-3.554 1.762-3.854 2.693A2.033 2.033 0 0 1 34.781 33c-.859 0-1.802-1.144-2.063-1.545-.15-.232-1.356-2.003-3.107-2.375a1.01 1.01 0 0 0-.392-.08c-.05 0-.091.012-.139.013-.036-.001-.067-.013-.103-.013-.074 0-.139.027-.208.042-2.056.211-3.124 1.783-3.404 2.651-.005.014-.439 1.307-1.951 1.307-.859 0-1.802-1.144-2.063-1.545-.169-.26-1.65-2.455-3.742-2.455-2.362 0-3.554 1.762-3.854 2.693A2.032 2.032 0 0 1 11.805 33c-.859 0-1.802-1.144-2.063-1.545C9.573 31.195 8.093 29 6 29a1 1 0 1 0 0 2c.859 0 1.798 1.139 2.062 1.542v.001C8.225 32.794 9.709 35 11.805 35c2.362 0 3.553-1.762 3.854-2.693z"></path><circle cx="35" cy="14" r="1"></circle><circle cx="43" cy="23.25" r="1"></circle><circle cx="40" cy="18.25" r="1"></circle><circle cx="35" cy="23.25" r="1"></circle><circle cx="47" cy="20.25" r="1"></circle><circle cx="26" cy="23.25" r="1"></circle><circle cx="23" cy="16.25" r="1"></circle><circle cx="18" cy="21.25" r="1"></circle><circle cx="30" cy="18.25" r="1"></circle><path d="M29.219 29H32a1 1 0 1 0 0-2H10.046C10.768 18.367 20.714 11 32 11s21.232 7.367 21.954 16H50a1 1 0 1 0 0 2h5a1 1 0 0 0 1-1C56 17.701 45.01 9 32 9S8 17.701 8 28a1 1 0 0 0 1 1H29.219z"></path><path d="M47 28a1 1 0 0 0-1-1H36a1 1 0 1 0 0 2h10a1 1 0 0 0 1-1zM52.393 35H11.607C7.964 35 5 37.691 5 41c0 2.1 1.196 3.948 3 5.021v6.805C8 55.127 9.78 57 11.968 57h40.064C54.22 57 56 55.127 56 52.826v-6.805c1.804-1.072 3-2.92 3-5.021 0-3.309-2.964-6-6.607-6zm-4.171 2L32.854 50.641c-.521.464-1.479.464-2.001 0l-7.682-6.818a.999.999 0 0 0-1.664.748v4.001c0 .709-.499 1.286-1.111 1.286s-1.111-.577-1.111-1.286v-7.75a1 1 0 0 0-.336-.748L15.487 37h32.735zm-36.615 0h.867l4.811 4.271V45h-5.678C9.066 45 7 43.206 7 41s2.066-4 4.607-4zM54 47v5.826C54 54.024 53.117 55 52.032 55H11.968C10.883 55 10 54.024 10 52.826V47h7.285v1.571c0 1.812 1.396 3.286 3.111 3.286s3.111-1.474 3.111-3.286v-1.776l6.019 5.342c.628.557 1.455.863 2.328.863s1.7-.307 2.328-.863L39.97 47H54zm-1.607-2h-10.17l9.012-8h1.158C54.934 37 57 38.794 57 41s-2.066 4-4.607 4z"></path></g><!----></svg>